<svg width="20" height="20" viewBox="0 0 20 20" fill="none" xmlns="http://www.w3.org/2000/svg">
<path fill-rule="evenodd" clip-rule="evenodd" d="M17.709 6.75V8V14.833C17.709 15.5923 17.0932 16.2078 16.334 16.208H3.66699C2.9076 16.208 2.29199 15.5924 2.29199 14.833V8C2.29199 7.24061 2.9076 6.625 3.66699 6.625H4.76367C5.64119 6.62487 6.46048 6.18619 6.94727 5.45605L7.42676 4.7373C7.68171 4.35492 8.11074 4.12513 8.57031 4.125H11.4297C11.4478 4.125 11.4658 4.12536 11.4838 4.12606C11.7547 3.65696 12.2371 3.32529 12.8006 3.26127C12.3938 3.01235 11.9208 2.875 11.4297 2.875H8.57031C7.6928 2.87513 6.8735 3.31381 6.38672 4.04395L5.90723 4.7627C5.65228 5.14508 5.22324 5.37487 4.76367 5.375H3.66699C2.21725 5.375 1.04199 6.55025 1.04199 8V14.833C1.04199 16.2828 2.21725 17.458 3.66699 17.458H16.334C17.7836 17.4578 18.959 16.2826 18.959 14.833V8C18.959 7.54745 18.8444 7.12165 18.6428 6.75L17.709 6.75Z" fill="#171717"/>
<path d="M11.8753 11C11.8753 9.96447 11.0358 9.125 10.0003 9.125C8.96477 9.125 8.12531 9.96447 8.12531 11C8.12531 12.0355 8.96477 12.875 10.0003 12.875C11.0358 12.875 11.8753 12.0355 11.8753 11ZM13.1253 11C13.1253 12.7259 11.7262 14.125 10.0003 14.125C8.27442 14.125 6.87531 12.7259 6.87531 11C6.87531 9.27411 8.27442 7.875 10.0003 7.875C11.7262 7.875 13.1253 9.27411 13.1253 11Z" fill="#171717"/>
<path fill-rule="evenodd" clip-rule="evenodd" d="M16.6253 2V3.25V4.375L19.0003 4.375C19.3455 4.375 19.6253 4.65482 19.6253 5C19.6253 5.34518 19.3455 5.625 19.0003 5.625H17.4532H16.6253V6.65599V6.75V8C16.6253 8.34518 16.3455 8.625 16.0003 8.625C15.6551 8.625 15.3753 8.34518 15.3753 8V6.75V6.625V5.625H13.1763H13.0003C12.6551 5.625 12.3753 5.34518 12.3753 5C12.3753 4.86201 12.42 4.73446 12.4958 4.63106C12.6095 4.47581 12.7931 4.375 13.0003 4.375H13.8351H15.3753V3.25V2C15.3753 1.65482 15.6551 1.375 16.0003 1.375C16.3455 1.375 16.6253 1.65482 16.6253 2Z" fill="#171717"/>
</svg>
