<svg width="20" height="20" viewBox="0 0 20 20" fill="none" xmlns="http://www.w3.org/2000/svg">
<path d="M11.0793 5.47461L11.513 5.9246L11.5131 5.92452L11.0793 5.47461ZM16.4797 5.47461L16.9135 5.0247L16.9135 5.02466L16.4797 5.47461ZM16.4797 10.6816L16.9133 11.1318L16.9135 11.1315L16.4797 10.6816ZM14.966 12.1396L14.5324 11.6895C14.5183 11.7031 14.5049 11.7173 14.4922 11.7321L14.966 12.1396ZM14.9269 12.1875L15.3607 12.6375L15.361 12.6372L14.9269 12.1875ZM10.4787 16.4756L10.0449 16.0256L10.0449 16.0257L10.4787 16.4756ZM9.87323 16.6533L9.98945 16.0392L9.98336 16.0381L9.87323 16.6533ZM9.52069 16.4746L9.95452 16.0247L9.95451 16.0247L9.52069 16.4746ZM5.07245 12.1855L4.63862 12.6355L4.63863 12.6355L5.07245 12.1855ZM5.0451 12.1533L5.50611 11.7313C5.49734 11.7217 5.48826 11.7124 5.47891 11.7034L5.0451 12.1533ZM3.51971 10.6826L3.08589 11.1325L3.08591 11.1326L3.51971 10.6826ZM3.51971 5.47656L3.08593 5.02661L3.08589 5.02665L3.51971 5.47656ZM8.91815 5.47656L9.35208 5.02675L9.35193 5.0266L8.91815 5.47656ZM9.99725 6.51758L9.56332 6.96739C9.80538 7.20091 10.1888 7.20099 10.431 6.96757L9.99725 6.51758ZM11.0793 5.47461L11.5131 5.92452C12.7621 4.7202 14.7967 4.72026 16.0459 5.92456L16.4797 5.47461L16.9135 5.02466C15.1802 3.35363 12.3787 3.35341 10.6455 5.0247L11.0793 5.47461ZM16.4797 5.47461L16.0458 5.92452C17.2821 7.11654 17.282 9.03961 16.0458 10.2318L16.4797 10.6816L16.9135 11.1315C18.6594 9.44787 18.6596 6.70835 16.9135 5.0247L16.4797 5.47461ZM16.4797 10.6816L16.0461 10.2315L14.5324 11.6895L14.966 12.1396L15.3996 12.5898L16.9133 11.1318L16.4797 10.6816ZM14.966 12.1396L14.4922 11.7321C14.4776 11.7491 14.4661 11.7638 14.4596 11.7724C14.4562 11.7768 14.4533 11.7807 14.4517 11.7829C14.4496 11.7856 14.4493 11.786 14.4489 11.7865C14.4484 11.7873 14.4525 11.7818 14.4591 11.7739C14.466 11.7657 14.4774 11.7528 14.4929 11.7378L14.9269 12.1875L15.361 12.6372C15.405 12.5947 15.4354 12.5544 15.4453 12.5414C15.448 12.5377 15.4508 12.5341 15.4518 12.5327C15.4533 12.5307 15.4535 12.5305 15.4533 12.5308C15.4529 12.5312 15.4478 12.538 15.4398 12.5472L14.966 12.1396ZM14.9269 12.1875L14.4932 11.7375L10.0449 16.0256L10.4787 16.4756L10.9125 16.9256L15.3607 12.6375L14.9269 12.1875ZM10.4787 16.4756L10.0449 16.0257C10.0349 16.0353 10.0152 16.0441 9.98945 16.0392L9.87323 16.6533L9.75701 17.2674C10.1563 17.343 10.5932 17.2334 10.9125 16.9255L10.4787 16.4756ZM9.87323 16.6533L9.98336 16.0381C9.96873 16.0355 9.95991 16.0299 9.95452 16.0247L9.52069 16.4746L9.08687 16.9245C9.28114 17.1119 9.5196 17.225 9.7631 17.2685L9.87323 16.6533ZM9.52069 16.4746L9.95451 16.0247L5.50627 11.7356L5.07245 12.1855L4.63863 12.6355L9.08687 16.9245L9.52069 16.4746ZM5.07245 12.1855L5.50627 11.7356C5.52141 11.7502 5.5325 11.7627 5.53893 11.7701C5.54223 11.774 5.54475 11.777 5.54626 11.7789C5.54772 11.7807 5.54862 11.7818 5.54843 11.7816C5.54835 11.7815 5.54817 11.7812 5.54768 11.7806C5.54733 11.7802 5.54648 11.7791 5.54572 11.7781C5.54413 11.7761 5.54136 11.7726 5.53808 11.7685C5.53171 11.7607 5.52053 11.7471 5.50611 11.7313L5.0451 12.1533L4.5841 12.5753C4.57434 12.5647 4.56764 12.5564 4.5657 12.554C4.56463 12.5527 4.56405 12.552 4.56466 12.5527C4.565 12.5532 4.56524 12.5535 4.56599 12.5544C4.5666 12.5552 4.56752 12.5564 4.56854 12.5576C4.57223 12.5623 4.58076 12.573 4.59153 12.5856C4.60257 12.5984 4.61844 12.616 4.63862 12.6355L5.07245 12.1855ZM5.0451 12.1533L5.47891 11.7034L3.95352 10.2327L3.51971 10.6826L3.08591 11.1326L4.6113 12.6033L5.0451 12.1533ZM3.51971 10.6826L3.95354 10.2327C2.71756 9.04092 2.71756 7.11826 3.95354 5.92647L3.51971 5.47656L3.08589 5.02665C1.34011 6.71001 1.34011 9.44917 3.08589 11.1325L3.51971 10.6826ZM3.51971 5.47656L3.9535 5.92651C5.20219 4.72268 7.23564 4.72269 8.48437 5.92652L8.91815 5.47656L9.35193 5.0266C7.61902 3.35601 4.81883 3.35596 3.08593 5.02661L3.51971 5.47656ZM8.91815 5.47656L8.48422 5.92637L9.56332 6.96739L9.99725 6.51758L10.4312 6.06777L9.35208 5.02675L8.91815 5.47656ZM9.99725 6.51758L10.431 6.96757L11.513 5.9246L11.0793 5.47461L10.6455 5.02462L9.56351 6.06759L9.99725 6.51758Z" fill="#737373"/>
</svg>
