<svg preserveAspectRatio="none" width="100%" height="100%" overflow="visible" style="display: block;" viewBox="0 0 9.58333 7.08333" fill="none" xmlns="http://www.w3.org/2000/svg">
<path id="Vector" d="M8.33333 6.45833C8.33333 6.80351 8.61316 7.08333 8.95833 7.08333C9.30351 7.08333 9.58333 6.80351 9.58333 6.45833H8.95833H8.33333ZM0.625 6.45833H1.25V2.29167H0.625H0V6.45833H0.625ZM2.29167 0.625V1.25H7.29167V0.625V0H2.29167V0.625ZM8.95833 2.29167H8.33333V6.45833H8.95833H9.58333V2.29167H8.95833ZM7.29167 0.625V1.25C7.86696 1.25 8.33333 1.71637 8.33333 2.29167H8.95833H9.58333C9.58333 1.02601 8.55732 0 7.29167 0V0.625ZM0.625 2.29167H1.25C1.25 1.71637 1.71637 1.25 2.29167 1.25V0.625V0C1.02601 0 0 1.02602 0 2.29167H0.625Z" fill="#171717"/>
</svg>
