<svg preserveAspectRatio="none" overflow="visible" style="display: block;" width="17.3571" height="17.357" viewBox="0 0 17.3571 17.357" fill="none" xmlns="http://www.w3.org/2000/svg">
<path id="Icon" d="M5.08424 15.0169L0.625018 16.732L5.24941 14.9534C5.54519 14.8396 5.69308 14.7828 5.83145 14.7085C5.95435 14.6425 6.07152 14.5664 6.18172 14.4809C6.30579 14.3846 6.41783 14.2725 6.64192 14.0485L16.0417 4.64869C16.9622 3.72822 16.9622 2.23583 16.0417 1.31536C15.1212 0.394882 13.6288 0.394881 12.7084 1.31535L3.30859 10.7151C3.0845 10.9392 2.97245 11.0513 2.87618 11.1753C2.79066 11.2855 2.71452 11.4027 2.64855 11.5256C2.57427 11.664 2.51739 11.8119 2.40363 12.1076L0.625018 16.732M0.625018 16.732L2.34012 12.2728" stroke="#171717" stroke-width="1.25" stroke-linecap="round" stroke-linejoin="round"/>
</svg>
