<svg preserveAspectRatio="none" width="100%" height="100%" overflow="visible" style="display: block;" viewBox="0 0 107.732 31" fill="none" xmlns="http://www.w3.org/2000/svg">
<g id="logo">
<g id="logo_2">
<path d="M18.8206 18.5882C18.8206 17.6037 17.9952 16.8235 17 16.8235C16.0048 16.8235 15.1794 17.6037 15.1794 18.5882C15.1794 21.0248 13.1245 23 10.5897 23C8.05488 23 6 21.0248 6 18.5882C6 12.7504 10.9146 8 17 8C23.0854 8 28 12.7504 28 18.5882C28 21.0248 25.9451 23 23.4103 23C20.8755 23 18.8206 21.0248 18.8206 18.5882Z" fill="#5B5CEB"/>
<path d="M37.44 8.78V14.812H38.992C40.512 14.812 41.28 14.508 41.28 13.788C41.28 13.068 40.512 12.78 38.992 12.78H37.6L38.08 8.78H40.048C44.912 8.78 46.4 10.876 46.4 13.868C46.4 16.876 44.912 18.972 40.048 18.972H37.44V22.22H32V8.78H37.44Z" fill="#5B5CEB"/>
<path d="M46.932 16.94V8.78H52.372V16.252C52.372 17.356 52.9 17.82 53.972 17.82C55.044 17.82 55.572 17.356 55.572 16.252V8.78H61.012V16.94C61.012 20.62 58.452 22.54 53.972 22.54C49.492 22.54 46.932 20.62 46.932 16.94Z" fill="#5B5CEB"/>
<path d="M73.2278 17.58V22.22H61.7077V8.78H67.1478V17.58H73.2278Z" fill="#5B5CEB"/>
<path d="M74.337 17.052C76.897 17.932 79.105 18.156 81.121 18.156C82.593 18.156 82.913 18.044 82.913 17.66C82.913 17.276 82.561 17.18 81.393 17.18C76.193 17.18 73.761 15.868 73.761 12.908C73.761 9.98 76.481 8.46 81.793 8.46C84.113 8.46 86.481 8.828 88.529 9.58L88.065 13.66C85.553 12.94 83.585 12.764 81.649 12.764C80.385 12.764 79.905 12.876 79.905 13.26C79.905 13.644 80.305 13.74 81.297 13.74C86.897 13.74 89.041 15.036 89.041 17.996C89.041 21.036 86.737 22.54 82.065 22.54C79.041 22.54 76.193 22.156 73.857 21.26L74.337 17.052Z" fill="#5B5CEB"/>
<path d="M101.652 12.86H94.7718V13.82H101.492V17.02H94.7718V17.98H101.732V22.22H89.5717V8.78H101.652V12.86Z" fill="#5B5CEB"/>
</g>
</g>
</svg>
