<svg preserveAspectRatio="none" width="100%" height="100%" overflow="visible" style="display: block;" viewBox="0 0 239.329 37.5" fill="none" xmlns="http://www.w3.org/2000/svg">
<g id="logo">
<path d="M32.0515 26.4706C32.0515 24.0092 29.9879 22.0588 27.5 22.0588C25.0121 22.0588 22.9485 24.0092 22.9485 26.4706C22.9485 32.562 17.8113 37.5 11.4743 37.5C5.13721 37.5 0 32.562 0 26.4706C0 11.8761 12.2864 0 27.5 0C42.7136 0 55 11.8761 55 26.4706C55 32.562 49.8628 37.5 43.5257 37.5C37.1887 37.5 32.0515 32.562 32.0515 26.4706Z" fill="#5B5CEB"/>
<path d="M78.6 1.95V17.03H82.48C86.28 17.03 88.2 16.27 88.2 14.47C88.2 12.67 86.28 11.95 82.48 11.95H79L80.2 1.95H85.12C97.28 1.95 101 7.19 101 14.67C101 22.19 97.28 27.43 85.12 27.43H78.6V35.55H65V1.95H78.6Z" fill="#5B5CEB"/>
<path d="M102.33 22.35V1.95H115.93V20.63C115.93 23.39 117.25 24.55 119.93 24.55C122.61 24.55 123.93 23.39 123.93 20.63V1.95H137.53V22.35C137.53 31.55 131.13 36.35 119.93 36.35C108.73 36.35 102.33 31.55 102.33 22.35Z" fill="#5B5CEB"/>
<path d="M168.069 23.95V35.55H139.269V1.95H152.869V23.95H168.069Z" fill="#5B5CEB"/>
<path d="M170.843 22.63C177.243 24.83 182.763 25.39 187.803 25.39C191.483 25.39 192.283 25.11 192.283 24.15C192.283 23.19 191.403 22.95 188.483 22.95C175.483 22.95 169.403 19.67 169.403 12.27C169.403 4.95 176.202 1.15 189.482 1.15C195.282 1.15 201.203 2.07 206.323 3.95L205.163 14.15C198.883 12.35 193.963 11.91 189.123 11.91C185.963 11.91 184.762 12.19 184.762 13.15C184.762 14.11 185.762 14.35 188.242 14.35C202.242 14.35 207.603 17.59 207.603 24.99C207.603 32.59 201.843 36.35 190.163 36.35C182.603 36.35 175.483 35.39 169.643 33.15L170.843 22.63Z" fill="#5B5CEB"/>
<path d="M239.129 12.15H221.929V14.55H238.729V22.55H221.929V24.95H239.329V35.55H208.929V1.95H239.129V12.15Z" fill="#5B5CEB"/>
</g>
</svg>
