<svg width="36" height="36" viewBox="0 0 36 36" fill="none" xmlns="http://www.w3.org/2000/svg">
<rect width="36" height="36" rx="18" fill="#171717" fill-opacity="0.66"/>
<path fill-rule="evenodd" clip-rule="evenodd" d="M25.7085 14.75V16V22.833C25.7085 23.5923 25.0927 24.2078 24.3335 24.208H11.6665C10.9071 24.208 10.2915 23.5924 10.2915 22.833V16C10.2915 15.2406 10.9071 14.625 11.6665 14.625H12.7632C13.6407 14.6249 14.46 14.1862 14.9468 13.4561L15.4263 12.7373C15.6812 12.3549 16.1103 12.1251 16.5698 12.125H19.4292C19.4473 12.125 19.4653 12.1254 19.4833 12.1261C19.7542 11.657 20.2366 11.3253 20.8001 11.2613C20.3934 11.0123 19.9203 10.875 19.4292 10.875H16.5698C15.6923 10.8751 14.873 11.3138 14.3862 12.0439L13.9067 12.7627C13.6518 13.1451 13.2228 13.3749 12.7632 13.375H11.6665C10.2168 13.375 9.0415 14.5503 9.0415 16V22.833C9.0415 24.2828 10.2168 25.458 11.6665 25.458H24.3335C25.7831 25.4578 26.9585 24.2826 26.9585 22.833V16C26.9585 15.5475 26.8439 15.1217 26.6423 14.75L25.7085 14.75Z" fill="#FAFAFA"/>
<path d="M19.8748 19C19.8748 17.9645 19.0354 17.125 17.9998 17.125C16.9643 17.125 16.1248 17.9645 16.1248 19C16.1248 20.0355 16.9643 20.875 17.9998 20.875C19.0354 20.875 19.8748 20.0355 19.8748 19ZM21.1248 19C21.1248 20.7259 19.7257 22.125 17.9998 22.125C16.2739 22.125 14.8748 20.7259 14.8748 19C14.8748 17.2741 16.2739 15.875 17.9998 15.875C19.7257 15.875 21.1248 17.2741 21.1248 19Z" fill="#FAFAFA"/>
<path fill-rule="evenodd" clip-rule="evenodd" d="M24.6248 10V11.25V12.375L26.9998 12.375C27.345 12.375 27.6248 12.6548 27.6248 13C27.6248 13.3452 27.345 13.625 26.9998 13.625H25.4527H24.6248V14.656V14.75V16C24.6248 16.3452 24.345 16.625 23.9998 16.625C23.6546 16.625 23.3748 16.3452 23.3748 16V14.75V14.625V13.625H21.1758H20.9998C20.6546 13.625 20.3748 13.3452 20.3748 13C20.3748 12.862 20.4195 12.7345 20.4953 12.6311C20.609 12.4758 20.7926 12.375 20.9998 12.375H21.8346H23.3748V11.25V10C23.3748 9.65482 23.6546 9.375 23.9998 9.375C24.345 9.375 24.6248 9.65482 24.6248 10Z" fill="#FAFAFA"/>
</svg>
