<svg width="20" height="20" viewBox="0 0 20 20" fill="none" xmlns="http://www.w3.org/2000/svg">
<path d="M15.8333 7.5H4.16667C3.24619 7.5 2.5 8.24619 2.5 9.16667V15.8333C2.5 16.7538 3.24619 17.5 4.16667 17.5H15.8333C16.7538 17.5 17.5 16.7538 17.5 15.8333V9.16667C17.5 8.24619 16.7538 7.5 15.8333 7.5Z" stroke="#171717" stroke-width="1.25" stroke-miterlimit="10" stroke-linejoin="round"/>
<path d="M13.5417 7.49996C13.5417 7.84514 13.8215 8.12496 14.1667 8.12496C14.5119 8.12496 14.7917 7.84514 14.7917 7.49996H14.1667H13.5417ZM5.83334 7.49996H6.45834V3.33329H5.83334H5.20834V7.49996H5.83334ZM7.50001 1.66663V2.29163H12.5V1.66663V1.04163H7.50001V1.66663ZM14.1667 3.33329H13.5417V7.49996H14.1667H14.7917V3.33329H14.1667ZM12.5 1.66663V2.29163C13.0753 2.29163 13.5417 2.758 13.5417 3.33329H14.1667H14.7917C14.7917 2.06764 13.7657 1.04163 12.5 1.04163V1.66663ZM5.83334 3.33329H6.45834C6.45834 2.758 6.92471 2.29163 7.50001 2.29163V1.66663V1.04163C6.23436 1.04163 5.20834 2.06764 5.20834 3.33329H5.83334Z" fill="#171717"/>
<path d="M10 11.6666V13.3333" stroke="#171717" stroke-width="1.25" stroke-miterlimit="10" stroke-linecap="round" stroke-linejoin="round"/>
</svg>
